<svg xmlns="http://www.w3.org/2000/svg" viewBox="0 0 340 72" width="340" height="72">
  <defs>
    <linearGradient id="globeGrad" x1="0%" y1="0%" x2="100%" y2="100%">
      <stop offset="0%" style="stop-color:#16a34a"/>
      <stop offset="100%" style="stop-color:#059669"/>
    </linearGradient>
    <linearGradient id="capGrad" x1="0%" y1="0%" x2="100%" y2="100%">
      <stop offset="0%" style="stop-color:#22c55e"/>
      <stop offset="100%" style="stop-color:#16a34a"/>
    </linearGradient>
    <linearGradient id="textGrad" x1="0%" y1="0%" x2="100%" y2="0%">
      <stop offset="0%" style="stop-color:#0f172a"/>
      <stop offset="100%" style="stop-color:#1e293b"/>
    </linearGradient>
    <filter id="glow">
      <feGaussianBlur stdDeviation="2" result="coloredBlur"/>
      <feMerge>
        <feMergeNode in="coloredBlur"/>
        <feMergeNode in="SourceGraphic"/>
      </feMerge>
    </filter>
    <filter id="shadow">
      <feDropShadow dx="0" dy="3" stdDeviation="4" flood-color="#16a34a" flood-opacity="0.3"/>
    </filter>
  </defs>
  <rect x="2" y="4" width="64" height="64" rx="16" fill="url(#globeGrad)" filter="url(#shadow)"/>
  <circle cx="34" cy="38" r="16" fill="none" stroke="white" stroke-width="1.5" opacity="0.9"/>
  <ellipse cx="34" cy="38" rx="7" ry="16" fill="none" stroke="white" stroke-width="1.2" opacity="0.6"/>
  <line x1="18" y1="38" x2="50" y2="38" stroke="white" stroke-width="1.2" opacity="0.6"/>
  <path d="M 19 30 Q 34 27 49 30" fill="none" stroke="white" stroke-width="1.1" opacity="0.5"/>
  <path d="M 19 46 Q 34 49 49 46" fill="none" stroke="white" stroke-width="1.1" opacity="0.5"/>
  <polygon points="34,10 52,18 34,26 16,18" fill="url(#capGrad)" filter="url(#glow)"/>
  <polygon points="34,10 52,18 34,20 16,18" fill="white" opacity="0.15"/>
  <rect x="26" y="18" width="16" height="7" rx="1" fill="#15803d" opacity="0.85"/>
  <line x1="52" y1="18" x2="52" y2="26" stroke="#bbf7d0" stroke-width="1.8" stroke-linecap="round"/>
  <circle cx="52" cy="27.5" r="2" fill="#bbf7d0"/>
  <text x="80" y="32" font-family="'Trebuchet MS', 'Segoe UI', sans-serif" font-size="24" font-weight="800" letter-spacing="-0.3" fill="#16a34a">Wicky</text>
  <text x="152" y="32" font-family="'Trebuchet MS', 'Segoe UI', sans-serif" font-size="24" font-weight="800" letter-spacing="-0.3" fill="#16a34a">Webinars</text>
  <text x="81" y="52" font-family="'Trebuchet MS', 'Segoe UI', sans-serif" font-size="10.5" font-weight="500" letter-spacing="2.8" fill="#64748b">LEARN · GROW · CONNECT</text>
  <rect x="80" y="36" width="50" height="2" rx="1" fill="#16a34a" opacity="0.7"/>
</svg>
